<svg width="77" height="13" viewBox="0 0 77 13" fill="none" xmlns="http://www.w3.org/2000/svg">
<path d="M8.604 13L4.896 7.474V13H0.9V0.256H4.896V5.62L8.55 0.256H13.068L8.676 6.358L13.356 13H8.604ZM18.4839 3.442V5.008H22.4439V8.014H18.4839V9.814H22.9839V13H14.4879V0.256H22.9839V3.442H18.4839ZM36.7118 13H32.7158L28.4858 6.592V13H24.4898V0.256H28.4858L32.7158 6.772V0.256H36.7118V13ZM43.8272 0.256C45.1592 0.256 46.3232 0.526 47.3192 1.066C48.3272 1.606 49.1012 2.356 49.6412 3.316C50.1812 4.276 50.4512 5.368 50.4512 6.592C50.4512 7.804 50.1812 8.896 49.6412 9.868C49.1012 10.84 48.3272 11.608 47.3192 12.172C46.3232 12.724 45.1592 13 43.8272 13H38.5172V0.256H43.8272ZM43.4672 9.436C44.3672 9.436 45.0812 9.19 45.6092 8.698C46.1372 8.206 46.4012 7.504 46.4012 6.592C46.4012 5.68 46.1372 4.978 45.6092 4.486C45.0812 3.994 44.3672 3.748 43.4672 3.748H42.5132V9.436H43.4672ZM58.3021 13L55.9081 8.428H55.8901V13H51.8941V0.256H57.8341C58.8661 0.256 59.7481 0.442 60.4801 0.813999C61.2121 1.174 61.7581 1.672 62.1181 2.308C62.4901 2.932 62.6761 3.64 62.6761 4.432C62.6761 5.284 62.4361 6.04 61.9561 6.7C61.4881 7.36 60.8101 7.834 59.9221 8.122L62.6941 13H58.3021ZM55.8901 5.764H57.4741C57.8581 5.764 58.1461 5.68 58.3381 5.512C58.5301 5.332 58.6261 5.056 58.6261 4.684C58.6261 4.348 58.5241 4.084 58.3201 3.892C58.1281 3.7 57.8461 3.604 57.4741 3.604H55.8901V5.764ZM72.1247 11.074H67.8767L67.2467 13H63.0527L67.7147 0.256H72.3227L76.9667 13H72.7547L72.1247 11.074ZM71.1527 8.068L70.0007 4.522L68.8487 8.068H71.1527Z" fill="#E94560"/>
</svg>
